HIERARCHY
ROOT Hips
{
	OFFSET 0.00000 0.00000 0.00000
	CHANNELS 6 Xposition Yposition Zposition Zrotation Yrotation Xrotation 
	JOINT LHipJoint
	{
		OFFSET 0 0 0
		CHANNELS 3 Zrotation Yrotation Xrotation
		JOINT LeftHip
		{
			OFFSET 1.53139 -1.83434 0.76626
			CHANNELS 3 Zrotation Yrotation Xrotation
			JOINT LeftKnee
			{
				OFFSET 2.56112 -7.03663 0.00000
				CHANNELS 3 Zrotation Yrotation Xrotation
				JOINT LeftAnkle
				{
					OFFSET 2.59983 -7.14299 0.00000
					CHANNELS 3 Zrotation Yrotation Xrotation
					JOINT LeftToe
					{
						OFFSET 0.13742 -0.37757 2.00054
						CHANNELS 3 Zrotation Yrotation Xrotation
						End Site
						{
							OFFSET 0.00000 -0.00000 1.02897
						}
					}
				}
			}
		}
	}
	JOINT RHipJoint
	{
		OFFSET 0 0 0
		CHANNELS 3 Zrotation Yrotation Xrotation
		JOINT RightHip
		{
			OFFSET -1.40122 -1.83435 0.76627
			CHANNELS 3 Zrotation Yrotation Xrotation
			JOINT RightKnee
			{
				OFFSET -2.54052 -6.98003 0.00000
				CHANNELS 3 Zrotation Yrotation Xrotation
				JOINT RightAnkle
				{
					OFFSET -2.63179 -7.23079 0.00000
					CHANNELS 3 Zrotation Yrotation Xrotation
					JOINT RightToe
					{
						OFFSET -0.24131 -0.66299 2.03908
						CHANNELS 3 Zrotation Yrotation Xrotation
						End Site
						{
							OFFSET -0.00000 -0.00000 1.07391
						}
					}
				}
			}
		}
	}
	JOINT lowerback
	{
		OFFSET 0 0 0
		CHANNELS 3 Zrotation Yrotation Xrotation
		JOINT Chest
		{
			OFFSET 0.01174 2.10302 -0.29778
			CHANNELS 3 Zrotation Yrotation Xrotation
			JOINT Chest2
			{
				OFFSET 0.00772 2.13227 -0.01247
				CHANNELS 3 Zrotation Yrotation Xrotation
				JOINT lowerneck
				{
					OFFSET 0 0 0
					CHANNELS 3 Zrotation Yrotation Xrotation
					JOINT Neck
					{
						OFFSET -0.09219 1.60848 0.31481
						CHANNELS 3 Zrotation Yrotation Xrotation
						JOINT Head
						{
							OFFSET 0.13974 1.65456 -0.31134
							CHANNELS 3 Zrotation Yrotation Xrotation
							End Site
							{
								OFFSET 0.04742 1.69515 -0.14578
							}
						}
					}
				}
				JOINT LeftCollar
				{
					OFFSET 0 0 0
					CHANNELS 3 Zrotation Yrotation Xrotation
					JOINT LeftShoulder
					{
						OFFSET 3.24909 1.02882 -0.23993
CHANNELS 3 Zrotation Xrotation Yrotation
						JOINT LeftElbow
						{
OFFSET 0 -5.329550 -0.000000
CHANNELS 3 Zrotation Xrotation Yrotation
							JOINT LeftWrist
							{
OFFSET 0 -3.692320 -0.000000
CHANNELS 3 Zrotation Xrotation Yrotation
								JOINT lhand
								{
									OFFSET 0 0 0
CHANNELS 3 Zrotation Xrotation Yrotation
									JOINT LFingers
									{
OFFSET 0 -0.536600 -0.000000
CHANNELS 3 Zrotation Xrotation Yrotation
										End Site
										{
OFFSET 0 -0.432620 -0.000000
										}
									}
								}
								JOINT LThumb
								{
OFFSET 0 0.000000 0.000000
CHANNELS 3 Zrotation Xrotation Yrotation
									End Site
									{
OFFSET 0 -0.439220 0.439220
									}
								}
							}
						}
					}
				}
				JOINT RightCollar
				{
					OFFSET 0 0 0
					CHANNELS 3 Zrotation Yrotation Xrotation
					JOINT RightShoulder
					{
						OFFSET -3.21387 0.93002 -0.34594
CHANNELS 3 Zrotation Xrotation Yrotation
						JOINT RightElbow
						{
OFFSET 0 -5.234310 0.000000
CHANNELS 3 Zrotation Xrotation Yrotation
							JOINT RightWrist
							{
OFFSET 0 -3.553010 -0.000000
CHANNELS 3 Zrotation Xrotation Yrotation
								JOINT rhand
								{
									OFFSET 0 0 0
CHANNELS 3 Zrotation Xrotation Yrotation
									JOINT RFingers
									{
OFFSET 0 -0.772520 -0.000000
CHANNELS 3 Zrotation Xrotation Yrotation
										End Site
										{
OFFSET 0 -0.622830 -0.000000
										}
									}
								}
								JOINT RThumb
								{
OFFSET 0 0.000000 0.000000
CHANNELS 3 Zrotation Xrotation Yrotation
									End Site
									{
OFFSET 0 -0.632340 0.632340
									}
								}
							}
						}
					}
				}
			}
		}
	}
}
MOTION
Frames: 7
Frame Time: 0.008333333333333333
-14.551400 17.804000 13.933000 3.277800 48.250000 4.200200 0.000000 0.000000 0.000000 -20.602900 -6.888300 -4.403900 1.501200 7.739100 21.924300 0.542900 -2.089900 -13.356800 0.052600 -1.480300 -4.071500 0.000000 0.000000 0.000000 20.401900 3.330900 -8.882800 -2.709800 -10.209800 29.658900 -1.116400 3.928700 -19.049900 -0.088300 -1.916200 5.274100 -2.132100 -0.175700 4.085400 0.344900 -0.336600 -0.957000 1.574300 -0.122400 -3.262600 -13.205100 -3.435700 -9.342200 5.708700 -2.716400 42.655000 4.724500 -2.112000 17.716000 -0.000000 -0.000000 0.000000 0.589900 0.516900 -20.276400 12.566200 -20.648300 2.298100 20.054900 17.847700 -23.724700 0.000000 0.000000 0.000000 -7.125000 0.000000 0.000000 -9.806100 54.784500 2.373800 -0.000000 -0.000000 0.000000 -0.751800 1.322300 7.035800 -13.136300 -21.486700 -2.503000 -16.033600 9.506300 -8.087700 0.000000 0.000000 0.000000 7.125000 0.000000 -0.000000 7.834700 21.599200 4.441300
-14.546865 17.803343 13.947643 3.218804 48.198935 4.142029 0.000000 0.000000 0.000000 -20.521990 -6.701050 -4.437457 1.508308 7.756548 21.977032 0.545443 -2.267601 -13.357251 0.041959 -1.321738 -3.634565 0.000000 0.000000 0.000000 20.502069 3.451297 -8.739591 -2.700495 -10.193662 29.606084 -1.121781 3.759297 -19.121411 -0.077222 -1.792510 4.932524 -2.033949 -0.145543 4.275527 0.249476 -0.298857 -1.012392 1.419576 -0.104216 -3.429517 -13.084838 -3.462713 -9.136906 5.768583 -2.843170 42.668365 4.709955 -2.137402 17.683643 0.000000 0.000000 0.000000 0.483614 1.196156 -20.719707 12.752836 -20.924002 2.364350 19.888591 17.680798 -23.825183 0.000000 0.000000 0.000000 -7.125000 0.000000 0.000000 -10.020290 54.854079 2.443507 0.000000 0.000000 0.000000 -0.191187 2.252885 6.191759 -12.910084 -21.155289 -2.420719 -15.834794 9.965708 -7.930128 0.000000 0.000000 0.000000 7.125000 0.000000 0.000000 7.982991 21.770345 4.495622
-14.544300 17.807219 13.943127 3.268963 47.998135 4.219373 0.000000 0.000000 0.000000 -20.638445 -6.958813 -4.375270 1.508876 7.757846 21.981025 0.539159 -1.795112 -13.368436 0.060324 -1.584911 -4.359701 0.000000 0.000000 0.000000 20.411697 3.510820 -8.799457 -2.697189 -10.187859 29.587342 -1.113725 3.956300 -19.022426 -0.077036 -1.790304 4.926591 -1.952662 -0.066315 4.506936 0.185276 -0.195339 -0.970608 1.301262 -0.054413 -3.521234 -13.072224 -3.532366 -9.308535 5.743526 -2.929253 42.591374 4.676663 -2.173345 17.695541 0.000000 0.000000 0.000000 0.063829 1.141682 -21.108601 13.036888 -21.341283 2.466754 20.155073 18.177451 -24.935333 0.000000 0.000000 0.000000 -7.125000 0.000000 0.000000 -10.235520 56.033874 2.791257 0.000000 0.000000 0.000000 0.279498 2.845889 6.391442 -13.216292 -21.603237 -2.532342 -15.533402 9.746569 -8.226946 0.000000 0.000000 0.000000 7.125000 0.000000 0.000000 8.192270 21.479287 4.670533
-14.546327 17.807816 13.922987 2.981415 47.678504 4.020898 0.000000 0.000000 0.000000 -20.497494 -6.956007 -4.445389 1.520930 7.787489 22.070508 0.547165 -1.605156 -13.512151 0.053425 -1.491441 -4.102197 0.000000 0.000000 0.000000 20.542247 3.646496 -8.866852 -2.695579 -10.185125 29.578400 -1.099363 4.129852 -18.872980 -0.106053 -2.099465 5.780624 -1.709515 0.022297 4.711391 0.303016 -0.060247 -0.648166 1.275978 0.004775 -3.308036 -13.291413 -3.441348 -10.125704 5.937046 -2.763761 41.662247 4.778744 -2.094243 17.342618 0.000000 0.000000 0.000000 -0.163755 0.902832 -23.285259 13.961394 -22.679507 2.813246 20.415431 16.202492 -24.827056 0.000000 0.000000 0.000000 -7.125000 0.000000 0.000000 -9.913910 55.977769 2.688892 0.000000 0.000000 0.000000 0.064657 2.159748 7.869010 -13.309151 -21.738545 -2.566688 -15.680336 8.709624 -8.440471 0.000000 0.000000 0.000000 7.125000 0.000000 0.000000 8.080295 21.253427 4.647251
-14.560503 17.822116 13.891450 2.844734 47.702970 4.241316 0.000000 0.000000 0.000000 -20.387755 -7.145052 -4.904525 1.523063 7.792667 22.086054 0.524371 -1.581397 -13.224211 0.048753 -1.425445 -3.920269 0.000000 0.000000 0.000000 20.564675 3.738160 -9.370496 -2.694318 -10.182976 29.571208 -1.062115 4.112480 -18.540484 -0.106540 -2.103074 5.790572 -1.467367 0.125330 5.146326 0.220254 0.084952 -0.296010 1.043722 0.069188 -3.193478 -13.491692 -3.630317 -12.073437 6.909155 -3.336352 38.049727 4.943735 -2.156853 15.944431 0.000000 0.000000 0.000000 -0.043722 0.487171 -25.061888 15.023829 -24.179304 3.235734 19.718420 14.641528 -23.906892 0.000000 0.000000 0.000000 -7.125000 0.000000 0.000000 -10.231144 54.903404 2.508455 0.000000 0.000000 0.000000 0.216384 1.390382 9.477947 -13.897411 -22.587832 -2.788576 -16.286255 8.035926 -8.300872 0.000000 0.000000 0.000000 7.125000 0.000000 0.000000 7.646782 21.367742 4.373400
-14.569611 17.832618 13.832966 2.790938 47.951644 4.626868 0.000000 0.000000 0.000000 -20.326328 -7.385494 -5.841728 1.589226 7.952275 22.569169 0.516283 -1.958415 -13.039934 0.042438 -1.327112 -3.649282 0.000000 0.000000 0.000000 20.502537 3.866468 -9.950948 -2.682545 -10.162532 29.504591 -1.029758 3.733875 -18.294290 -0.115189 -2.187932 6.025295 -1.303639 0.176374 5.693334 0.299764 0.161805 0.066421 1.027211 0.103600 -3.128577 -13.742408 -4.214370 -14.609232 7.415417 -4.146169 32.229369 4.752078 -2.357300 13.882943 0.000000 0.000000 0.000000 -0.121642 -0.237991 -26.164180 15.745398 -25.174124 3.536935 19.242217 14.317555 -24.293041 0.000000 0.000000 0.000000 -7.125000 0.000000 0.000000 -10.891127 55.199721 2.751463 0.000000 0.000000 0.000000 -0.358603 0.410321 11.817059 -14.317529 -23.186781 -2.951977 -16.072088 7.064589 -8.319469 0.000000 0.000000 0.000000 7.125000 0.000000 0.000000 7.800988 21.358897 4.464745
-14.555726 17.842681 13.721437 3.657104 49.208633 5.480339 0.000000 0.000000 0.000000 -20.796040 -6.823564 -7.513556 1.746433 8.316599 23.679922 0.477383 -3.934953 -12.300509 0.015527 -0.794967 -2.184880 0.000000 0.000000 0.000000 19.399215 2.574886 -10.987167 -2.734184 -10.251804 29.796126 -1.017574 4.151853 -18.128682 -0.021507 -0.945736 2.599465 -0.590061 0.199064 7.147545 -0.147799 0.213385 -0.116718 0.156014 0.118103 -4.132001 -13.968161 -5.230749 -17.013808 7.698201 -5.345145 28.977050 4.550606 -2.802251 13.189657 0.000000 0.000000 0.000000 0.383216 -0.713931 -27.106627 15.697649 -25.109035 3.516663 19.653175 14.473197 -25.092448 0.000000 0.000000 0.000000 -7.125000 0.000000 0.000000 -10.833186 56.089350 2.971550 0.000000 0.000000 0.000000 -0.490779 -0.036276 11.846810 -14.509348 -23.458183 -3.027935 -15.410216 7.086717 -8.230786 0.000000 0.000000 0.000000 7.125000 0.000000 0.000000 8.281136 21.481086 4.721904
